<mxfile host="app.diagrams.net" modified="2021-01-14T15:51:32.772Z" agent="5.0 (X11; Linux x86_64) AppleWebKit/537.36 (KHTML, like Gecko) Chrome/87.0.4280.88 Safari/537.36" etag="kKu7Nf-5Aly_sf8DefDZ" version="14.2.3" type="github" pages="2">
  <diagram id="prtHgNgQTEPvFCAcTncT" name="Page-1">
    <mxGraphModel dx="1102" dy="621" grid="1" gridSize="10" guides="1" tooltips="1" connect="1" arrows="1" fold="1" page="1" pageScale="1" pageWidth="980" pageHeight="1390" math="0" shadow="0">
      <root>
        <mxCell id="0" />
        <mxCell id="1" parent="0" />
        <mxCell id="TVPdSnbktovkC6RhDZ48-65" value="Breve&amp;nbsp; explicação&amp;nbsp;" style="text;html=1;strokeColor=none;fillColor=none;align=left;verticalAlign=middle;whiteSpace=wrap;rounded=0;fontSize=18;fontStyle=1" parent="1" vertex="1">
          <mxGeometry x="40" y="790" width="770" height="20" as="geometry" />
        </mxCell>
        <mxCell id="TVPdSnbktovkC6RhDZ48-66" value="1. Dentro da Pasta de Cadastro terá o index e contextCadastro,&amp;nbsp; que proverá dados para seus filhos, que&amp;nbsp;são os tipos de registro.&amp;nbsp; Componentes como Alert e SnackBar são gerenciados via context, as demais&lt;br&gt;informações via props.,&amp;nbsp;&amp;nbsp;" style="text;html=1;strokeColor=none;fillColor=none;align=left;verticalAlign=middle;whiteSpace=wrap;rounded=0;fontSize=16;fontStyle=0" parent="1" vertex="1">
          <mxGeometry x="40" y="830" width="770" height="50" as="geometry" />
        </mxCell>
        <mxCell id="TVPdSnbktovkC6RhDZ48-67" value="2. Cada tipo de registro terá seu próprio formik para gerenciar validação, porem alguns dados que esse formik recebe será passado via props. Os dados passados via props são aqueles&amp;nbsp; que tem necessidade de ser compartilhados em mais de um formulário.&amp;nbsp; &amp;nbsp;" style="text;html=1;strokeColor=none;fillColor=none;align=left;verticalAlign=middle;whiteSpace=wrap;rounded=0;fontSize=16;fontStyle=0" parent="1" vertex="1">
          <mxGeometry x="40" y="900" width="770" height="50" as="geometry" />
        </mxCell>
        <mxCell id="TVPdSnbktovkC6RhDZ48-70" value="" style="group" parent="1" vertex="1" connectable="0">
          <mxGeometry x="110" y="170" width="689" height="515" as="geometry" />
        </mxCell>
        <mxCell id="TVPdSnbktovkC6RhDZ48-3" value="" style="group" parent="TVPdSnbktovkC6RhDZ48-70" vertex="1" connectable="0">
          <mxGeometry x="140" y="40" width="170" height="60" as="geometry" />
        </mxCell>
        <mxCell id="TVPdSnbktovkC6RhDZ48-1" value="" style="rounded=0;whiteSpace=wrap;html=1;" parent="TVPdSnbktovkC6RhDZ48-3" vertex="1">
          <mxGeometry width="170" height="60" as="geometry" />
        </mxCell>
        <mxCell id="TVPdSnbktovkC6RhDZ48-2" value="Index Cadastro" style="text;html=1;strokeColor=none;fillColor=none;align=center;verticalAlign=middle;whiteSpace=wrap;rounded=0;fontSize=17;fontColor=#007FFF;" parent="TVPdSnbktovkC6RhDZ48-3" vertex="1">
          <mxGeometry x="10" y="10" width="150" height="20" as="geometry" />
        </mxCell>
        <mxCell id="TVPdSnbktovkC6RhDZ48-48" value="&lt;font style=&quot;font-size: 16px&quot; color=&quot;#ff9933&quot;&gt;via props&lt;/font&gt;" style="text;html=1;strokeColor=none;fillColor=none;align=center;verticalAlign=middle;whiteSpace=wrap;rounded=0;fontSize=17;fontColor=#007FFF;" parent="TVPdSnbktovkC6RhDZ48-3" vertex="1">
          <mxGeometry x="10" y="30" width="150" height="20" as="geometry" />
        </mxCell>
        <mxCell id="TVPdSnbktovkC6RhDZ48-32" value="" style="shape=datastore;whiteSpace=wrap;html=1;fontSize=15;fillColor=#d5e8d4;strokeColor=#82b366;" parent="TVPdSnbktovkC6RhDZ48-70" vertex="1">
          <mxGeometry x="210" width="20" height="30" as="geometry" />
        </mxCell>
        <mxCell id="TVPdSnbktovkC6RhDZ48-33" value="" style="group" parent="TVPdSnbktovkC6RhDZ48-70" vertex="1" connectable="0">
          <mxGeometry x="330" y="40" width="170" height="60" as="geometry" />
        </mxCell>
        <mxCell id="TVPdSnbktovkC6RhDZ48-34" value="" style="rounded=0;whiteSpace=wrap;html=1;" parent="TVPdSnbktovkC6RhDZ48-33" vertex="1">
          <mxGeometry width="170" height="60" as="geometry" />
        </mxCell>
        <mxCell id="TVPdSnbktovkC6RhDZ48-35" value="Contexto Cadastro" style="text;html=1;strokeColor=none;fillColor=none;align=center;verticalAlign=middle;whiteSpace=wrap;rounded=0;fontSize=17;fontColor=#007FFF;" parent="TVPdSnbktovkC6RhDZ48-33" vertex="1">
          <mxGeometry x="10" y="10" width="150" height="20" as="geometry" />
        </mxCell>
        <mxCell id="TVPdSnbktovkC6RhDZ48-49" value="&lt;font style=&quot;font-size: 16px&quot; color=&quot;#ff9933&quot;&gt;via contexto&lt;/font&gt;" style="text;html=1;strokeColor=none;fillColor=none;align=center;verticalAlign=middle;whiteSpace=wrap;rounded=0;fontSize=17;fontColor=#007FFF;" parent="TVPdSnbktovkC6RhDZ48-33" vertex="1">
          <mxGeometry y="30" width="150" height="20" as="geometry" />
        </mxCell>
        <mxCell id="TVPdSnbktovkC6RhDZ48-36" value="" style="shape=datastore;whiteSpace=wrap;html=1;fontSize=15;fillColor=#d5e8d4;strokeColor=#82b366;" parent="TVPdSnbktovkC6RhDZ48-70" vertex="1">
          <mxGeometry x="405" width="20" height="30" as="geometry" />
        </mxCell>
        <mxCell id="TVPdSnbktovkC6RhDZ48-42" value="" style="group" parent="TVPdSnbktovkC6RhDZ48-70" vertex="1" connectable="0">
          <mxGeometry y="160" width="689" height="355" as="geometry" />
        </mxCell>
        <mxCell id="TVPdSnbktovkC6RhDZ48-61" style="edgeStyle=orthogonalEdgeStyle;rounded=0;orthogonalLoop=1;jettySize=auto;html=1;entryX=0.5;entryY=0;entryDx=0;entryDy=0;fontSize=15;fontColor=#007FFF;" parent="TVPdSnbktovkC6RhDZ48-42" source="TVPdSnbktovkC6RhDZ48-37" target="TVPdSnbktovkC6RhDZ48-50" edge="1">
          <mxGeometry relative="1" as="geometry" />
        </mxCell>
        <mxCell id="TVPdSnbktovkC6RhDZ48-37" value="" style="verticalLabelPosition=bottom;verticalAlign=top;html=1;shape=mxgraph.basic.rect;fillColor2=none;strokeWidth=1;size=20;indent=5;fontSize=15;fontColor=#007FFF;" parent="TVPdSnbktovkC6RhDZ48-42" vertex="1">
          <mxGeometry width="590" height="120" as="geometry" />
        </mxCell>
        <mxCell id="TVPdSnbktovkC6RhDZ48-28" value="" style="group" parent="TVPdSnbktovkC6RhDZ48-42" vertex="1" connectable="0">
          <mxGeometry x="10" y="20" width="150" height="77.5" as="geometry" />
        </mxCell>
        <mxCell id="TVPdSnbktovkC6RhDZ48-29" value="" style="rounded=0;whiteSpace=wrap;html=1;" parent="TVPdSnbktovkC6RhDZ48-28" vertex="1">
          <mxGeometry x="15" width="120" height="77.5" as="geometry" />
        </mxCell>
        <mxCell id="TVPdSnbktovkC6RhDZ48-30" value="&lt;font color=&quot;#0066cc&quot;&gt;Comunicado&lt;/font&gt;" style="text;html=1;strokeColor=none;fillColor=none;align=center;verticalAlign=middle;whiteSpace=wrap;rounded=0;fontSize=15;fontColor=#007FFF;" parent="TVPdSnbktovkC6RhDZ48-28" vertex="1">
          <mxGeometry y="25.833333333333336" width="150" height="25.833333333333336" as="geometry" />
        </mxCell>
        <mxCell id="TVPdSnbktovkC6RhDZ48-9" value="" style="group" parent="TVPdSnbktovkC6RhDZ48-42" vertex="1" connectable="0">
          <mxGeometry x="150" y="20" width="150" height="77.5" as="geometry" />
        </mxCell>
        <mxCell id="TVPdSnbktovkC6RhDZ48-10" value="" style="rounded=0;whiteSpace=wrap;html=1;" parent="TVPdSnbktovkC6RhDZ48-9" vertex="1">
          <mxGeometry x="15" width="120" height="77.5" as="geometry" />
        </mxCell>
        <mxCell id="TVPdSnbktovkC6RhDZ48-11" value="&lt;font color=&quot;#0066cc&quot;&gt;Denuncia&lt;/font&gt;" style="text;html=1;strokeColor=none;fillColor=none;align=center;verticalAlign=middle;whiteSpace=wrap;rounded=0;fontSize=15;fontColor=#007FFF;" parent="TVPdSnbktovkC6RhDZ48-9" vertex="1">
          <mxGeometry y="25.833333333333336" width="150" height="25.833333333333336" as="geometry" />
        </mxCell>
        <mxCell id="TVPdSnbktovkC6RhDZ48-16" value="" style="group" parent="TVPdSnbktovkC6RhDZ48-42" vertex="1" connectable="0">
          <mxGeometry x="290" y="20" width="150" height="77.5" as="geometry" />
        </mxCell>
        <mxCell id="TVPdSnbktovkC6RhDZ48-17" value="" style="rounded=0;whiteSpace=wrap;html=1;" parent="TVPdSnbktovkC6RhDZ48-16" vertex="1">
          <mxGeometry x="15" width="120" height="77.5" as="geometry" />
        </mxCell>
        <mxCell id="TVPdSnbktovkC6RhDZ48-18" value="&lt;font color=&quot;#0066cc&quot;&gt;Fisc Condicion.&lt;/font&gt;" style="text;html=1;strokeColor=none;fillColor=none;align=center;verticalAlign=middle;whiteSpace=wrap;rounded=0;fontSize=15;fontColor=#007FFF;" parent="TVPdSnbktovkC6RhDZ48-16" vertex="1">
          <mxGeometry y="25.833333333333336" width="150" height="25.833333333333336" as="geometry" />
        </mxCell>
        <mxCell id="TVPdSnbktovkC6RhDZ48-39" value="" style="group" parent="TVPdSnbktovkC6RhDZ48-42" vertex="1" connectable="0">
          <mxGeometry x="430" y="20" width="150" height="77.5" as="geometry" />
        </mxCell>
        <mxCell id="TVPdSnbktovkC6RhDZ48-40" value="" style="rounded=0;whiteSpace=wrap;html=1;" parent="TVPdSnbktovkC6RhDZ48-39" vertex="1">
          <mxGeometry x="15" width="120" height="77.5" as="geometry" />
        </mxCell>
        <mxCell id="TVPdSnbktovkC6RhDZ48-41" value="&lt;font color=&quot;#0066cc&quot;&gt;Outros tipos&lt;/font&gt;" style="text;html=1;strokeColor=none;fillColor=none;align=center;verticalAlign=middle;whiteSpace=wrap;rounded=0;fontSize=15;fontColor=#007FFF;" parent="TVPdSnbktovkC6RhDZ48-39" vertex="1">
          <mxGeometry y="25.833333333333336" width="150" height="25.833333333333336" as="geometry" />
        </mxCell>
        <mxCell id="TVPdSnbktovkC6RhDZ48-50" value="" style="swimlane;html=1;startSize=20;horizontal=1;childLayout=treeLayout;horizontalTree=0;resizable=0;containerType=tree;fontSize=15;fontColor=#007FFF;" parent="TVPdSnbktovkC6RhDZ48-42" vertex="1">
          <mxGeometry x="155" y="165" width="280" height="200" as="geometry" />
        </mxCell>
        <mxCell id="TVPdSnbktovkC6RhDZ48-51" value="Formik + Yup" style="whiteSpace=wrap;html=1;" parent="TVPdSnbktovkC6RhDZ48-50" vertex="1">
          <mxGeometry x="90" y="40" width="100" height="40" as="geometry" />
        </mxCell>
        <mxCell id="TVPdSnbktovkC6RhDZ48-52" value="Dados pertinente&amp;nbsp;&lt;br&gt;ao&amp;nbsp; tipo de registro" style="whiteSpace=wrap;html=1;" parent="TVPdSnbktovkC6RhDZ48-50" vertex="1">
          <mxGeometry x="20" y="130" width="100" height="50" as="geometry" />
        </mxCell>
        <mxCell id="TVPdSnbktovkC6RhDZ48-53" value="" style="edgeStyle=elbowEdgeStyle;elbow=vertical;html=1;rounded=0;" parent="TVPdSnbktovkC6RhDZ48-50" source="TVPdSnbktovkC6RhDZ48-51" target="TVPdSnbktovkC6RhDZ48-52" edge="1">
          <mxGeometry relative="1" as="geometry" />
        </mxCell>
        <mxCell id="TVPdSnbktovkC6RhDZ48-54" value="Dados Globais&lt;br&gt;Compartilhados entre os registros" style="whiteSpace=wrap;html=1;" parent="TVPdSnbktovkC6RhDZ48-50" vertex="1">
          <mxGeometry x="160" y="130" width="100" height="50" as="geometry" />
        </mxCell>
        <mxCell id="TVPdSnbktovkC6RhDZ48-55" value="" style="edgeStyle=elbowEdgeStyle;elbow=vertical;html=1;rounded=0;" parent="TVPdSnbktovkC6RhDZ48-50" source="TVPdSnbktovkC6RhDZ48-51" target="TVPdSnbktovkC6RhDZ48-54" edge="1">
          <mxGeometry relative="1" as="geometry" />
        </mxCell>
        <mxCell id="TVPdSnbktovkC6RhDZ48-62" value="" style="shape=datastore;whiteSpace=wrap;html=1;fontSize=15;fillColor=#dae8fc;strokeColor=#6c8ebf;" parent="TVPdSnbktovkC6RhDZ48-50" vertex="1">
          <mxGeometry x="25" y="95" width="20" height="25" as="geometry" />
        </mxCell>
        <mxCell id="TVPdSnbktovkC6RhDZ48-63" value="" style="shape=datastore;whiteSpace=wrap;html=1;fontSize=15;fillColor=#d5e8d4;strokeColor=#82b366;" parent="TVPdSnbktovkC6RhDZ48-50" vertex="1">
          <mxGeometry x="225" y="95" width="20" height="25" as="geometry" />
        </mxCell>
        <mxCell id="TVPdSnbktovkC6RhDZ48-43" style="edgeStyle=orthogonalEdgeStyle;rounded=0;orthogonalLoop=1;jettySize=auto;html=1;entryX=0.381;entryY=-0.008;entryDx=0;entryDy=0;entryPerimeter=0;fontSize=15;fontColor=#007FFF;" parent="TVPdSnbktovkC6RhDZ48-70" source="TVPdSnbktovkC6RhDZ48-1" target="TVPdSnbktovkC6RhDZ48-37" edge="1">
          <mxGeometry relative="1" as="geometry" />
        </mxCell>
        <mxCell id="TVPdSnbktovkC6RhDZ48-47" style="edgeStyle=orthogonalEdgeStyle;rounded=0;orthogonalLoop=1;jettySize=auto;html=1;exitX=0.5;exitY=1;exitDx=0;exitDy=0;entryX=0.703;entryY=0.033;entryDx=0;entryDy=0;entryPerimeter=0;fontSize=15;fontColor=#007FFF;" parent="TVPdSnbktovkC6RhDZ48-70" source="TVPdSnbktovkC6RhDZ48-34" target="TVPdSnbktovkC6RhDZ48-37" edge="1">
          <mxGeometry relative="1" as="geometry" />
        </mxCell>
        <mxCell id="TVPdSnbktovkC6RhDZ48-64" value="Tipos de&amp;nbsp; Registro" style="text;html=1;strokeColor=none;fillColor=none;align=center;verticalAlign=middle;whiteSpace=wrap;rounded=0;fontSize=15;fontColor=#FF3333;fontStyle=1" parent="TVPdSnbktovkC6RhDZ48-70" vertex="1">
          <mxGeometry x="239" y="130" width="150" height="20" as="geometry" />
        </mxCell>
        <mxCell id="TVPdSnbktovkC6RhDZ48-68" value="Dados" style="text;html=1;strokeColor=none;fillColor=none;align=center;verticalAlign=middle;whiteSpace=wrap;rounded=0;fontSize=15;fontColor=#FF3333;fontStyle=1" parent="TVPdSnbktovkC6RhDZ48-70" vertex="1">
          <mxGeometry x="239" y="5" width="150" height="20" as="geometry" />
        </mxCell>
        <mxCell id="TVPdSnbktovkC6RhDZ48-71" value="&lt;font style=&quot;font-size: 27px&quot;&gt;Fluxo básico da lógica de cadastro&lt;/font&gt;" style="text;html=1;strokeColor=none;fillColor=none;align=center;verticalAlign=middle;whiteSpace=wrap;rounded=0;fontSize=18;fontStyle=1" parent="1" vertex="1">
          <mxGeometry x="20" y="40" width="770" height="40" as="geometry" />
        </mxCell>
      </root>
    </mxGraphModel>
  </diagram>
  <diagram id="FneMwg6dUrbiFcoT2PgE" name="Page-2">
    <mxGraphModel dx="1574" dy="887" grid="1" gridSize="10" guides="1" tooltips="1" connect="1" arrows="1" fold="1" page="1" pageScale="1" pageWidth="690" pageHeight="980" math="0" shadow="0">
      <root>
        <mxCell id="Cw4dsM8QARBJDr6qBG0a-0" />
        <mxCell id="Cw4dsM8QARBJDr6qBG0a-1" parent="Cw4dsM8QARBJDr6qBG0a-0" />
        <mxCell id="Cw4dsM8QARBJDr6qBG0a-5" style="edgeStyle=orthogonalEdgeStyle;rounded=0;orthogonalLoop=1;jettySize=auto;html=1;exitX=1;exitY=0.5;exitDx=0;exitDy=0;fontSize=16;fontColor=#000000;" parent="Cw4dsM8QARBJDr6qBG0a-1" source="Cw4dsM8QARBJDr6qBG0a-2" edge="1">
          <mxGeometry relative="1" as="geometry">
            <mxPoint x="170" y="240" as="targetPoint" />
          </mxGeometry>
        </mxCell>
        <mxCell id="Cw4dsM8QARBJDr6qBG0a-2" value="" style="rounded=1;whiteSpace=wrap;html=1;fontSize=16;fontColor=#000000;align=center;labelBackgroundColor=#D4E1F5;" parent="Cw4dsM8QARBJDr6qBG0a-1" vertex="1">
          <mxGeometry x="30" y="210" width="100" height="60" as="geometry" />
        </mxCell>
        <mxCell id="Cw4dsM8QARBJDr6qBG0a-9" style="edgeStyle=orthogonalEdgeStyle;rounded=0;orthogonalLoop=1;jettySize=auto;html=1;exitX=0.5;exitY=1;exitDx=0;exitDy=0;entryX=0.5;entryY=0;entryDx=0;entryDy=0;fontSize=16;fontColor=#000000;" parent="Cw4dsM8QARBJDr6qBG0a-1" source="Cw4dsM8QARBJDr6qBG0a-3" edge="1">
          <mxGeometry relative="1" as="geometry">
            <mxPoint x="380" y="340" as="targetPoint" />
          </mxGeometry>
        </mxCell>
        <mxCell id="Cw4dsM8QARBJDr6qBG0a-3" value="" style="rhombus;whiteSpace=wrap;html=1;labelBackgroundColor=#D4E1F5;fontSize=16;fontColor=#000000;align=center;" parent="Cw4dsM8QARBJDr6qBG0a-1" vertex="1">
          <mxGeometry x="320" y="200" width="120" height="80" as="geometry" />
        </mxCell>
        <mxCell id="Cw4dsM8QARBJDr6qBG0a-6" style="edgeStyle=orthogonalEdgeStyle;rounded=0;orthogonalLoop=1;jettySize=auto;html=1;exitX=1;exitY=0.5;exitDx=0;exitDy=0;fontSize=16;fontColor=#000000;" parent="Cw4dsM8QARBJDr6qBG0a-1" source="Cw4dsM8QARBJDr6qBG0a-4" edge="1">
          <mxGeometry relative="1" as="geometry">
            <mxPoint x="320" y="240" as="targetPoint" />
          </mxGeometry>
        </mxCell>
        <mxCell id="Cw4dsM8QARBJDr6qBG0a-4" value="" style="rounded=1;whiteSpace=wrap;html=1;fontSize=16;fontColor=#000000;align=center;labelBackgroundColor=#D4E1F5;" parent="Cw4dsM8QARBJDr6qBG0a-1" vertex="1">
          <mxGeometry x="170" y="210" width="100" height="60" as="geometry" />
        </mxCell>
        <mxCell id="Cw4dsM8QARBJDr6qBG0a-11" value="Cadastrar Registro" style="text;strokeColor=none;fillColor=none;align=center;verticalAlign=middle;rounded=0;labelBackgroundColor=none;fontSize=13;fontColor=#000000;whiteSpace=wrap;" parent="Cw4dsM8QARBJDr6qBG0a-1" vertex="1">
          <mxGeometry x="30" y="230" width="90" height="20" as="geometry" />
        </mxCell>
        <mxCell id="Cw4dsM8QARBJDr6qBG0a-12" value="Validar Registro" style="text;strokeColor=none;fillColor=none;align=center;verticalAlign=middle;rounded=0;labelBackgroundColor=none;fontSize=13;fontColor=#000000;whiteSpace=wrap;" parent="Cw4dsM8QARBJDr6qBG0a-1" vertex="1">
          <mxGeometry x="180" y="230" width="80" height="20" as="geometry" />
        </mxCell>
        <mxCell id="Cw4dsM8QARBJDr6qBG0a-17" value="Não" style="text;strokeColor=none;fillColor=none;align=center;verticalAlign=middle;rounded=0;labelBackgroundColor=none;fontSize=12;whiteSpace=wrap;fontStyle=1;fontColor=#CC0000;" parent="Cw4dsM8QARBJDr6qBG0a-1" vertex="1">
          <mxGeometry x="380" y="290" width="70" height="20" as="geometry" />
        </mxCell>
        <mxCell id="Cw4dsM8QARBJDr6qBG0a-28" style="edgeStyle=orthogonalEdgeStyle;rounded=0;orthogonalLoop=1;jettySize=auto;html=1;fontSize=13;fontColor=#CC0000;exitX=1;exitY=0.5;exitDx=0;exitDy=0;" parent="Cw4dsM8QARBJDr6qBG0a-1" source="Cw4dsM8QARBJDr6qBG0a-3" edge="1">
          <mxGeometry relative="1" as="geometry">
            <mxPoint x="550" y="240" as="sourcePoint" />
            <mxPoint x="490" y="240" as="targetPoint" />
            <Array as="points" />
          </mxGeometry>
        </mxCell>
        <mxCell id="Cw4dsM8QARBJDr6qBG0a-21" value="Dados válidos ?" style="text;strokeColor=none;fillColor=none;align=center;verticalAlign=middle;rounded=0;labelBackgroundColor=none;fontSize=13;fontColor=#000000;whiteSpace=wrap;" parent="Cw4dsM8QARBJDr6qBG0a-1" vertex="1">
          <mxGeometry x="330" y="230" width="100" height="20" as="geometry" />
        </mxCell>
        <mxCell id="vKyIdL4eeOGfVKT7WiQZ-3" style="edgeStyle=orthogonalEdgeStyle;rounded=0;orthogonalLoop=1;jettySize=auto;html=1;exitX=0.5;exitY=1;exitDx=0;exitDy=0;entryX=0;entryY=0.75;entryDx=0;entryDy=0;" edge="1" parent="Cw4dsM8QARBJDr6qBG0a-1" source="Cw4dsM8QARBJDr6qBG0a-23" target="Cw4dsM8QARBJDr6qBG0a-80">
          <mxGeometry relative="1" as="geometry" />
        </mxCell>
        <mxCell id="Cw4dsM8QARBJDr6qBG0a-23" value="" style="rhombus;whiteSpace=wrap;html=1;labelBackgroundColor=#D4E1F5;fontSize=16;fontColor=#000000;align=center;" parent="Cw4dsM8QARBJDr6qBG0a-1" vertex="1">
          <mxGeometry x="660" y="340" width="120" height="80" as="geometry" />
        </mxCell>
        <mxCell id="Cw4dsM8QARBJDr6qBG0a-74" style="edgeStyle=orthogonalEdgeStyle;rounded=0;orthogonalLoop=1;jettySize=auto;html=1;exitX=0.564;exitY=1.033;exitDx=0;exitDy=0;fontSize=12;fontColor=#CC0000;exitPerimeter=0;" parent="Cw4dsM8QARBJDr6qBG0a-1" source="Cw4dsM8QARBJDr6qBG0a-29" edge="1">
          <mxGeometry relative="1" as="geometry">
            <mxPoint x="719" y="340" as="targetPoint" />
          </mxGeometry>
        </mxCell>
        <mxCell id="Cw4dsM8QARBJDr6qBG0a-29" value="" style="rounded=1;whiteSpace=wrap;html=1;fontSize=16;fontColor=#000000;align=center;labelBackgroundColor=#D4E1F5;fillColor=#CCE5FF;" parent="Cw4dsM8QARBJDr6qBG0a-1" vertex="1">
          <mxGeometry x="640" y="210" width="140" height="60" as="geometry" />
        </mxCell>
        <mxCell id="Cw4dsM8QARBJDr6qBG0a-31" value="Exibir mensagem&#xa;com numero do;&#xa;registro" style="text;strokeColor=none;fillColor=none;align=center;verticalAlign=middle;rounded=0;labelBackgroundColor=none;fontSize=13;fontColor=#000000;whiteSpace=wrap;" parent="Cw4dsM8QARBJDr6qBG0a-1" vertex="1">
          <mxGeometry x="645" y="220" width="130" height="40" as="geometry" />
        </mxCell>
        <mxCell id="Cw4dsM8QARBJDr6qBG0a-40" style="edgeStyle=orthogonalEdgeStyle;rounded=0;orthogonalLoop=1;jettySize=auto;html=1;exitX=0.5;exitY=1;exitDx=0;exitDy=0;fontSize=13;fontColor=#CC0000;" parent="Cw4dsM8QARBJDr6qBG0a-1" source="Cw4dsM8QARBJDr6qBG0a-11" target="Cw4dsM8QARBJDr6qBG0a-11" edge="1">
          <mxGeometry relative="1" as="geometry" />
        </mxCell>
        <mxCell id="Cw4dsM8QARBJDr6qBG0a-48" value="Sim" style="text;strokeColor=none;fillColor=none;align=center;verticalAlign=middle;rounded=0;labelBackgroundColor=none;fontSize=12;whiteSpace=wrap;fontStyle=1;fontColor=#CC0000;" parent="Cw4dsM8QARBJDr6qBG0a-1" vertex="1">
          <mxGeometry x="420" y="210" width="70" height="20" as="geometry" />
        </mxCell>
        <mxCell id="Cw4dsM8QARBJDr6qBG0a-52" value="Não" style="text;strokeColor=none;fillColor=none;align=center;verticalAlign=middle;rounded=0;labelBackgroundColor=none;fontSize=12;whiteSpace=wrap;fontStyle=1;fontColor=#CC0000;" parent="Cw4dsM8QARBJDr6qBG0a-1" vertex="1">
          <mxGeometry x="972" y="580" width="70" height="20" as="geometry" />
        </mxCell>
        <mxCell id="Cw4dsM8QARBJDr6qBG0a-68" style="edgeStyle=orthogonalEdgeStyle;rounded=0;orthogonalLoop=1;jettySize=auto;html=1;exitX=1;exitY=0.5;exitDx=0;exitDy=0;fontSize=12;fontColor=#CC0000;" parent="Cw4dsM8QARBJDr6qBG0a-1" source="Cw4dsM8QARBJDr6qBG0a-56" edge="1">
          <mxGeometry relative="1" as="geometry">
            <mxPoint x="640" y="240" as="targetPoint" />
          </mxGeometry>
        </mxCell>
        <mxCell id="Cw4dsM8QARBJDr6qBG0a-56" value="" style="rounded=1;whiteSpace=wrap;html=1;fontSize=16;align=center;labelBackgroundColor=#D4E1F5;" parent="Cw4dsM8QARBJDr6qBG0a-1" vertex="1">
          <mxGeometry x="490" y="210" width="100" height="60" as="geometry" />
        </mxCell>
        <mxCell id="Cw4dsM8QARBJDr6qBG0a-57" value="Gerar numero do registro" style="text;strokeColor=none;fillColor=none;align=center;verticalAlign=middle;rounded=0;labelBackgroundColor=none;fontSize=13;fontColor=#000000;whiteSpace=wrap;" parent="Cw4dsM8QARBJDr6qBG0a-1" vertex="1">
          <mxGeometry x="495" y="230" width="90" height="20" as="geometry" />
        </mxCell>
        <mxCell id="Cw4dsM8QARBJDr6qBG0a-66" style="edgeStyle=orthogonalEdgeStyle;rounded=0;orthogonalLoop=1;jettySize=auto;html=1;exitX=0.5;exitY=1;exitDx=0;exitDy=0;fontSize=12;fontColor=#CC0000;" parent="Cw4dsM8QARBJDr6qBG0a-1" source="Cw4dsM8QARBJDr6qBG0a-57" target="Cw4dsM8QARBJDr6qBG0a-57" edge="1">
          <mxGeometry relative="1" as="geometry" />
        </mxCell>
        <mxCell id="vKyIdL4eeOGfVKT7WiQZ-7" style="edgeStyle=orthogonalEdgeStyle;rounded=0;orthogonalLoop=1;jettySize=auto;html=1;entryX=0.5;entryY=0;entryDx=0;entryDy=0;exitX=1;exitY=0.5;exitDx=0;exitDy=0;" edge="1" parent="Cw4dsM8QARBJDr6qBG0a-1" source="Cw4dsM8QARBJDr6qBG0a-23" target="Cw4dsM8QARBJDr6qBG0a-101">
          <mxGeometry relative="1" as="geometry">
            <mxPoint x="790" y="380" as="sourcePoint" />
          </mxGeometry>
        </mxCell>
        <mxCell id="Cw4dsM8QARBJDr6qBG0a-71" value="Editar&#xa;registro ?" style="text;strokeColor=none;fillColor=none;align=center;verticalAlign=middle;rounded=0;labelBackgroundColor=none;fontSize=13;fontColor=#000000;whiteSpace=wrap;" parent="Cw4dsM8QARBJDr6qBG0a-1" vertex="1">
          <mxGeometry x="680" y="370" width="80" height="20" as="geometry" />
        </mxCell>
        <mxCell id="Cw4dsM8QARBJDr6qBG0a-72" value="Sim" style="text;strokeColor=none;fillColor=none;align=center;verticalAlign=middle;rounded=0;labelBackgroundColor=none;fontSize=12;whiteSpace=wrap;fontStyle=1;fontColor=#CC0000;" parent="Cw4dsM8QARBJDr6qBG0a-1" vertex="1">
          <mxGeometry x="730" y="440" width="70" height="20" as="geometry" />
        </mxCell>
        <mxCell id="Cw4dsM8QARBJDr6qBG0a-73" value="Não" style="text;strokeColor=none;fillColor=none;align=center;verticalAlign=middle;rounded=0;labelBackgroundColor=none;fontSize=12;whiteSpace=wrap;fontStyle=1;fontColor=#CC0000;" parent="Cw4dsM8QARBJDr6qBG0a-1" vertex="1">
          <mxGeometry x="780" y="350" width="70" height="20" as="geometry" />
        </mxCell>
        <mxCell id="Cw4dsM8QARBJDr6qBG0a-95" style="edgeStyle=orthogonalEdgeStyle;rounded=0;orthogonalLoop=1;jettySize=auto;html=1;exitX=1;exitY=0.5;exitDx=0;exitDy=0;entryX=0;entryY=0.5;entryDx=0;entryDy=0;fontSize=12;fontColor=#CC0000;" parent="Cw4dsM8QARBJDr6qBG0a-1" source="Cw4dsM8QARBJDr6qBG0a-80" target="Cw4dsM8QARBJDr6qBG0a-93" edge="1">
          <mxGeometry relative="1" as="geometry" />
        </mxCell>
        <mxCell id="Cw4dsM8QARBJDr6qBG0a-80" value="" style="rounded=1;whiteSpace=wrap;html=1;fontSize=16;fontColor=#000000;align=center;labelBackgroundColor=#D4E1F5;" parent="Cw4dsM8QARBJDr6qBG0a-1" vertex="1">
          <mxGeometry x="760" y="490" width="100" height="60" as="geometry" />
        </mxCell>
        <mxCell id="Cw4dsM8QARBJDr6qBG0a-81" value="Validar Registro" style="text;strokeColor=none;fillColor=none;align=center;verticalAlign=middle;rounded=0;labelBackgroundColor=none;fontSize=13;fontColor=#000000;whiteSpace=wrap;" parent="Cw4dsM8QARBJDr6qBG0a-1" vertex="1">
          <mxGeometry x="770" y="510" width="80" height="20" as="geometry" />
        </mxCell>
        <mxCell id="Cw4dsM8QARBJDr6qBG0a-98" style="edgeStyle=orthogonalEdgeStyle;rounded=0;orthogonalLoop=1;jettySize=auto;html=1;exitX=0.5;exitY=1;exitDx=0;exitDy=0;entryX=0.5;entryY=0;entryDx=0;entryDy=0;fontSize=12;fontColor=#CC0000;" parent="Cw4dsM8QARBJDr6qBG0a-1" source="Cw4dsM8QARBJDr6qBG0a-93" target="Cw4dsM8QARBJDr6qBG0a-96" edge="1">
          <mxGeometry relative="1" as="geometry" />
        </mxCell>
        <mxCell id="Cw4dsM8QARBJDr6qBG0a-103" style="edgeStyle=orthogonalEdgeStyle;rounded=0;orthogonalLoop=1;jettySize=auto;html=1;exitX=1;exitY=0.5;exitDx=0;exitDy=0;entryX=0;entryY=0.5;entryDx=0;entryDy=0;fontSize=12;fontColor=#CC0000;" parent="Cw4dsM8QARBJDr6qBG0a-1" source="Cw4dsM8QARBJDr6qBG0a-93" target="Cw4dsM8QARBJDr6qBG0a-101" edge="1">
          <mxGeometry relative="1" as="geometry" />
        </mxCell>
        <mxCell id="Cw4dsM8QARBJDr6qBG0a-93" value="" style="rhombus;whiteSpace=wrap;html=1;labelBackgroundColor=#D4E1F5;fontSize=16;fontColor=#000000;align=center;" parent="Cw4dsM8QARBJDr6qBG0a-1" vertex="1">
          <mxGeometry x="922" y="480" width="120" height="80" as="geometry" />
        </mxCell>
        <mxCell id="Cw4dsM8QARBJDr6qBG0a-94" value="Dados válidos ?" style="text;strokeColor=none;fillColor=none;align=center;verticalAlign=middle;rounded=0;labelBackgroundColor=none;fontSize=13;fontColor=#000000;whiteSpace=wrap;" parent="Cw4dsM8QARBJDr6qBG0a-1" vertex="1">
          <mxGeometry x="932" y="510" width="100" height="20" as="geometry" />
        </mxCell>
        <mxCell id="Cw4dsM8QARBJDr6qBG0a-108" style="edgeStyle=orthogonalEdgeStyle;rounded=0;orthogonalLoop=1;jettySize=auto;html=1;exitX=0.5;exitY=1;exitDx=0;exitDy=0;entryX=0.321;entryY=-0.033;entryDx=0;entryDy=0;entryPerimeter=0;fontSize=12;fontColor=#CC0000;" parent="Cw4dsM8QARBJDr6qBG0a-1" source="Cw4dsM8QARBJDr6qBG0a-101" target="Cw4dsM8QARBJDr6qBG0a-105" edge="1">
          <mxGeometry relative="1" as="geometry" />
        </mxCell>
        <mxCell id="Cw4dsM8QARBJDr6qBG0a-101" value="" style="rounded=1;whiteSpace=wrap;html=1;fontSize=16;align=center;labelBackgroundColor=#D4E1F5;" parent="Cw4dsM8QARBJDr6qBG0a-1" vertex="1">
          <mxGeometry x="1112" y="490" width="110" height="60" as="geometry" />
        </mxCell>
        <mxCell id="Cw4dsM8QARBJDr6qBG0a-104" value="Finalizar registro" style="text;strokeColor=none;fillColor=none;align=center;verticalAlign=middle;rounded=0;labelBackgroundColor=none;fontSize=13;fontColor=#000000;whiteSpace=wrap;" parent="Cw4dsM8QARBJDr6qBG0a-1" vertex="1">
          <mxGeometry x="1112" y="510" width="120" height="20" as="geometry" />
        </mxCell>
        <mxCell id="Cw4dsM8QARBJDr6qBG0a-105" value="" style="rounded=1;whiteSpace=wrap;html=1;fontSize=16;fontColor=#000000;align=center;labelBackgroundColor=#D4E1F5;fillColor=#CCFFE6;" parent="Cw4dsM8QARBJDr6qBG0a-1" vertex="1">
          <mxGeometry x="1082" y="620" width="140" height="60" as="geometry" />
        </mxCell>
        <mxCell id="Cw4dsM8QARBJDr6qBG0a-106" value="Exibir mensagem&#xa;registro finalizado" style="text;strokeColor=none;fillColor=none;align=center;verticalAlign=middle;rounded=0;labelBackgroundColor=none;fontSize=13;fontColor=#000000;whiteSpace=wrap;" parent="Cw4dsM8QARBJDr6qBG0a-1" vertex="1">
          <mxGeometry x="1087" y="630" width="130" height="40" as="geometry" />
        </mxCell>
        <mxCell id="Cw4dsM8QARBJDr6qBG0a-109" value="Fluxo&amp;nbsp; do cadastro" style="text;html=1;strokeColor=none;fillColor=none;align=center;verticalAlign=middle;whiteSpace=wrap;rounded=0;labelBackgroundColor=none;fontSize=25;fontStyle=1" parent="Cw4dsM8QARBJDr6qBG0a-1" vertex="1">
          <mxGeometry x="520" y="50" width="340" height="20" as="geometry" />
        </mxCell>
        <mxCell id="Cw4dsM8QARBJDr6qBG0a-110" value="Legenda" style="text;html=1;strokeColor=none;fillColor=none;align=center;verticalAlign=middle;whiteSpace=wrap;rounded=0;labelBackgroundColor=none;fontSize=21;fontColor=#000000;" parent="Cw4dsM8QARBJDr6qBG0a-1" vertex="1">
          <mxGeometry x="10" y="460" width="110" height="20" as="geometry" />
        </mxCell>
        <mxCell id="Cw4dsM8QARBJDr6qBG0a-111" value="" style="rounded=1;whiteSpace=wrap;html=1;fontSize=16;fontColor=#000000;align=center;labelBackgroundColor=#D4E1F5;fillColor=#FFFFCC;" parent="Cw4dsM8QARBJDr6qBG0a-1" vertex="1">
          <mxGeometry x="25" y="490" width="35" height="20" as="geometry" />
        </mxCell>
        <mxCell id="Cw4dsM8QARBJDr6qBG0a-112" value="" style="rounded=1;whiteSpace=wrap;html=1;fontSize=16;fontColor=#000000;align=center;labelBackgroundColor=#D4E1F5;fillColor=#CCE5FF;" parent="Cw4dsM8QARBJDr6qBG0a-1" vertex="1">
          <mxGeometry x="25" y="520" width="35" height="20" as="geometry" />
        </mxCell>
        <mxCell id="Cw4dsM8QARBJDr6qBG0a-113" value="" style="rounded=1;whiteSpace=wrap;html=1;fontSize=16;fontColor=#000000;align=center;labelBackgroundColor=#D4E1F5;fillColor=#CCFFE6;" parent="Cw4dsM8QARBJDr6qBG0a-1" vertex="1">
          <mxGeometry x="25" y="550" width="35" height="20" as="geometry" />
        </mxCell>
        <mxCell id="Cw4dsM8QARBJDr6qBG0a-114" value="Alerta mensagem de aviso, informando sobre error" style="text;strokeColor=none;fillColor=none;align=center;verticalAlign=middle;rounded=0;labelBackgroundColor=none;fontSize=14;fontColor=#000000;whiteSpace=wrap;" parent="Cw4dsM8QARBJDr6qBG0a-1" vertex="1">
          <mxGeometry x="70" y="490" width="330" height="20" as="geometry" />
        </mxCell>
        <mxCell id="Cw4dsM8QARBJDr6qBG0a-115" value="Alerta mensagem informação, informando numero gerado" style="text;strokeColor=none;fillColor=none;align=center;verticalAlign=middle;rounded=0;labelBackgroundColor=none;fontSize=14;fontColor=#000000;whiteSpace=wrap;" parent="Cw4dsM8QARBJDr6qBG0a-1" vertex="1">
          <mxGeometry x="70" y="520" width="370" height="20" as="geometry" />
        </mxCell>
        <mxCell id="Cw4dsM8QARBJDr6qBG0a-116" value="Alerta mensagem de  sucesso, informando finalização do cadastro" style="text;strokeColor=none;fillColor=none;align=center;verticalAlign=middle;rounded=0;labelBackgroundColor=none;fontSize=14;fontColor=#000000;whiteSpace=wrap;" parent="Cw4dsM8QARBJDr6qBG0a-1" vertex="1">
          <mxGeometry x="65" y="550" width="430" height="20" as="geometry" />
        </mxCell>
        <mxCell id="U6Dg9gWYrCi5mURHyro0-0" value="Sim" style="text;strokeColor=none;fillColor=none;align=center;verticalAlign=middle;rounded=0;labelBackgroundColor=none;fontSize=12;whiteSpace=wrap;fontStyle=1;fontColor=#CC0000;" parent="Cw4dsM8QARBJDr6qBG0a-1" vertex="1">
          <mxGeometry x="1022" y="490" width="70" height="20" as="geometry" />
        </mxCell>
        <mxCell id="vKyIdL4eeOGfVKT7WiQZ-19" style="edgeStyle=orthogonalEdgeStyle;rounded=0;orthogonalLoop=1;jettySize=auto;html=1;exitX=0.5;exitY=0;exitDx=0;exitDy=0;entryX=0.5;entryY=1;entryDx=0;entryDy=0;" edge="1" parent="Cw4dsM8QARBJDr6qBG0a-1" source="vKyIdL4eeOGfVKT7WiQZ-13" target="Cw4dsM8QARBJDr6qBG0a-80">
          <mxGeometry relative="1" as="geometry" />
        </mxCell>
        <mxCell id="vKyIdL4eeOGfVKT7WiQZ-20" value="" style="group" vertex="1" connectable="0" parent="Cw4dsM8QARBJDr6qBG0a-1">
          <mxGeometry x="745" y="620" width="307" height="65" as="geometry" />
        </mxCell>
        <mxCell id="Cw4dsM8QARBJDr6qBG0a-96" value="" style="rounded=1;whiteSpace=wrap;html=1;fontSize=16;fontColor=#000000;align=center;labelBackgroundColor=#D4E1F5;fillColor=#FFFFCC;" parent="vKyIdL4eeOGfVKT7WiQZ-20" vertex="1">
          <mxGeometry x="167" width="140" height="60" as="geometry" />
        </mxCell>
        <mxCell id="U6Dg9gWYrCi5mURHyro0-2" value="Exibir mensagem informando os erros" style="text;strokeColor=none;fillColor=none;align=center;verticalAlign=middle;rounded=0;labelBackgroundColor=none;fontSize=13;fontColor=#000000;whiteSpace=wrap;" parent="vKyIdL4eeOGfVKT7WiQZ-20" vertex="1">
          <mxGeometry x="177" y="30" width="120" height="10" as="geometry" />
        </mxCell>
        <mxCell id="vKyIdL4eeOGfVKT7WiQZ-13" value="" style="rounded=1;whiteSpace=wrap;html=1;fontSize=16;fontColor=#000000;align=center;labelBackgroundColor=#D4E1F5;" vertex="1" parent="vKyIdL4eeOGfVKT7WiQZ-20">
          <mxGeometry y="5" width="130" height="60" as="geometry" />
        </mxCell>
        <mxCell id="vKyIdL4eeOGfVKT7WiQZ-17" style="edgeStyle=orthogonalEdgeStyle;rounded=0;orthogonalLoop=1;jettySize=auto;html=1;entryX=1;entryY=0.5;entryDx=0;entryDy=0;" edge="1" parent="vKyIdL4eeOGfVKT7WiQZ-20" target="vKyIdL4eeOGfVKT7WiQZ-13">
          <mxGeometry relative="1" as="geometry">
            <mxPoint x="175" y="35" as="sourcePoint" />
          </mxGeometry>
        </mxCell>
        <mxCell id="vKyIdL4eeOGfVKT7WiQZ-14" value="Corrigir Erros" style="text;strokeColor=none;fillColor=none;align=center;verticalAlign=middle;rounded=0;labelBackgroundColor=none;fontSize=13;fontColor=#000000;whiteSpace=wrap;" vertex="1" parent="vKyIdL4eeOGfVKT7WiQZ-20">
          <mxGeometry x="20" y="25" width="90" height="20" as="geometry" />
        </mxCell>
        <mxCell id="vKyIdL4eeOGfVKT7WiQZ-15" style="edgeStyle=orthogonalEdgeStyle;rounded=0;orthogonalLoop=1;jettySize=auto;html=1;exitX=0.5;exitY=1;exitDx=0;exitDy=0;fontSize=13;fontColor=#CC0000;" edge="1" parent="vKyIdL4eeOGfVKT7WiQZ-20" source="vKyIdL4eeOGfVKT7WiQZ-14" target="vKyIdL4eeOGfVKT7WiQZ-14">
          <mxGeometry relative="1" as="geometry" />
        </mxCell>
        <mxCell id="vKyIdL4eeOGfVKT7WiQZ-32" style="edgeStyle=orthogonalEdgeStyle;rounded=0;orthogonalLoop=1;jettySize=auto;html=1;exitX=0.5;exitY=0;exitDx=0;exitDy=0;" edge="1" parent="Cw4dsM8QARBJDr6qBG0a-1" source="vKyIdL4eeOGfVKT7WiQZ-24">
          <mxGeometry relative="1" as="geometry">
            <mxPoint x="215" y="270" as="targetPoint" />
          </mxGeometry>
        </mxCell>
        <mxCell id="vKyIdL4eeOGfVKT7WiQZ-34" style="edgeStyle=orthogonalEdgeStyle;rounded=0;orthogonalLoop=1;jettySize=auto;html=1;exitX=0;exitY=0.5;exitDx=0;exitDy=0;entryX=1;entryY=0.5;entryDx=0;entryDy=0;" edge="1" parent="Cw4dsM8QARBJDr6qBG0a-1" source="vKyIdL4eeOGfVKT7WiQZ-22" target="vKyIdL4eeOGfVKT7WiQZ-24">
          <mxGeometry relative="1" as="geometry" />
        </mxCell>
        <mxCell id="vKyIdL4eeOGfVKT7WiQZ-22" value="" style="rounded=1;whiteSpace=wrap;html=1;fontSize=16;fontColor=#000000;align=center;labelBackgroundColor=#D4E1F5;fillColor=#FFFFCC;" vertex="1" parent="Cw4dsM8QARBJDr6qBG0a-1">
          <mxGeometry x="350" y="340" width="140" height="60" as="geometry" />
        </mxCell>
        <mxCell id="vKyIdL4eeOGfVKT7WiQZ-23" value="Exibir mensagem informando os erros" style="text;strokeColor=none;fillColor=none;align=center;verticalAlign=middle;rounded=0;labelBackgroundColor=none;fontSize=13;fontColor=#000000;whiteSpace=wrap;" vertex="1" parent="Cw4dsM8QARBJDr6qBG0a-1">
          <mxGeometry x="360" y="365" width="120" height="10" as="geometry" />
        </mxCell>
        <mxCell id="vKyIdL4eeOGfVKT7WiQZ-24" value="" style="rounded=1;whiteSpace=wrap;html=1;fontSize=16;fontColor=#000000;align=center;labelBackgroundColor=#D4E1F5;" vertex="1" parent="Cw4dsM8QARBJDr6qBG0a-1">
          <mxGeometry x="150" y="345" width="130" height="60" as="geometry" />
        </mxCell>
        <mxCell id="vKyIdL4eeOGfVKT7WiQZ-26" value="Corrigir Erros" style="text;strokeColor=none;fillColor=none;align=center;verticalAlign=middle;rounded=0;labelBackgroundColor=none;fontSize=13;fontColor=#000000;whiteSpace=wrap;" vertex="1" parent="Cw4dsM8QARBJDr6qBG0a-1">
          <mxGeometry x="170" y="365" width="90" height="20" as="geometry" />
        </mxCell>
        <mxCell id="vKyIdL4eeOGfVKT7WiQZ-27" style="edgeStyle=orthogonalEdgeStyle;rounded=0;orthogonalLoop=1;jettySize=auto;html=1;exitX=0.5;exitY=1;exitDx=0;exitDy=0;fontSize=13;fontColor=#CC0000;" edge="1" parent="Cw4dsM8QARBJDr6qBG0a-1" source="vKyIdL4eeOGfVKT7WiQZ-26" target="vKyIdL4eeOGfVKT7WiQZ-26">
          <mxGeometry x="150" y="340" as="geometry" />
        </mxCell>
      </root>
    </mxGraphModel>
  </diagram>
</mxfile>
